<?xml version="1.0" encoding="UTF-8" standalone="no"?>
<!DOCTYPE svg PUBLIC "-//W3C//DTD SVG 1.1//EN" "http://www.w3.org/Graphics/SVG/1.1/DTD/svg11.dtd">
<svg width="100%" height="100%" viewBox="0 0 2610 753" version="1.1" xmlns="http://www.w3.org/2000/svg" xmlns:xlink="http://www.w3.org/1999/xlink" xml:space="preserve" xmlns:serif="http://www.serif.com/" style="fill-rule:evenodd;clip-rule:evenodd;stroke-linecap:round;stroke-linejoin:round;stroke-miterlimit:1.5;">
    <g transform="matrix(1,0,0,1,-348.503,-1427.97)">
        <g transform="matrix(1,0,0,1,1177.72,1428)">
            <path d="M0,0C-1.035,5.864 -5.598,9.281 -10.266,12.621L-12.688,14.25C-18.433,18.147 -23.378,22.758 -28.407,27.509C-30.034,29.032 -31.681,30.53 -33.336,32.023C-43.46,41.179 -52.148,50.802 -60,62L-63.027,66.266C-71.53,78.005 -71.53,78.005 -78.938,90.438C-80.72,93.784 -82.536,96.831 -84.875,99.813C-87.241,103.361 -87.814,104.839 -87,109C-84.269,112.909 -81.226,115.534 -77.375,118.313C-68.908,124.522 -60.8,131.137 -52.695,137.809C-51.04,139.155 -49.371,140.484 -47.68,141.785C-32.215,153.711 -17.598,168.095 -5,183L-2.551,185.82C4.122,193.54 10.283,201.569 16.342,209.775C18.098,212.132 19.882,214.466 21.672,216.797C40.802,241.781 55.897,268.965 68,298L68.968,300.297C74.721,313.965 74.721,313.965 77,321C77.454,322.321 77.91,323.641 78.367,324.961C81.37,333.715 84.008,342.442 86.141,351.449C86.684,353.695 87.292,355.928 87.984,358.133C89.46,363.751 90.193,369.441 91,375.188C92.996,390.38 92.996,390.38 96.063,405.375C97.252,410.451 97.471,415.572 97.754,420.766C97.907,423.842 97.907,423.842 98.498,426.162C99.174,429.982 99.222,433.77 99.273,437.637L99.311,440.232C99.343,443.05 99.362,445.869 99.375,448.688L99.39,451.608C99.421,466.643 98.483,481.395 96.625,496.313L96.289,499.031C95.967,501.581 95.633,504.129 95.289,506.676L94.989,508.927C94.347,513.424 93.286,517.634 92,522C91.62,523.933 91.272,525.872 90.957,527.816C88.44,542.703 84.976,556.752 80,571C79.005,573.96 78.025,576.922 77.07,579.895C75.051,586.126 72.83,592.095 70,598L68.543,601.141C64.143,610.332 58.861,618.674 53,627L51.344,629.371C48.018,633.962 44.271,638.137 40.441,642.313C38.502,644.448 36.608,646.607 34.723,648.789C24.55,660.435 13.558,670.974 1,680C-0.17,680.884 -1.338,681.771 -2.504,682.66C-17.193,693.798 -32.484,702.704 -49.451,709.903C-51.98,710.991 -54.483,712.127 -56.984,713.277C-77.916,722.782 -100.087,728.316 -122.452,733.349C-125.062,733.974 -125.062,733.974 -127.77,734.989C-131.748,736.234 -135.668,736.828 -139.789,737.402L-142.387,737.776C-144.211,738.036 -146.035,738.294 -147.859,738.55C-150.541,738.926 -153.222,739.313 -155.902,739.701C-161.595,740.517 -167.296,741.265 -173,742L-176.183,742.422C-194.935,744.861 -213.422,745.442 -232.291,745.323C-235.149,745.309 -238.007,745.314 -240.865,745.319C-265.255,745.352 -289.52,744.179 -313.75,741.25L-315.842,740.998C-352.048,736.597 -386.59,727.964 -421.032,716.02C-425.097,714.623 -429.181,713.283 -433.266,711.948C-437.081,710.625 -440.774,709.061 -444.484,707.473C-447.193,706.338 -449.905,705.247 -452.641,704.184C-462.253,700.436 -471.559,696.424 -480.715,691.664C-486.045,688.964 -489.952,687.122 -496,688C-500.51,690.339 -504.675,693.178 -508.672,696.311C-514.756,701.05 -521.307,704.879 -528,708.688L-529.841,709.74C-545.008,718.384 -560.743,725.647 -577,732L-579.051,732.827C-585.082,735.2 -591.28,736.626 -597.578,738.105L-600.125,738.719L-602.383,739.248C-604.594,739.883 -606.644,740.628 -608.781,741.468C-612.921,743.047 -617.034,743.981 -621.383,744.789L-623.737,745.24C-625.371,745.551 -627.007,745.858 -628.643,746.162C-631.1,746.62 -633.554,747.094 -636.008,747.57C-644.526,749.19 -652.829,750.408 -661.503,750.802C-663.94,750.723 -663.94,750.723 -665,752C-670.137,752.293 -675.293,752.245 -680.438,752.25L-682.758,752.254C-696.998,752.249 -710.917,751.187 -725,749L-727.314,748.644C-731.213,748.022 -735.08,747.289 -738.938,746.448C-740.422,746.125 -741.91,745.814 -743.398,745.509C-765.946,740.87 -785.168,733.078 -802,717L-803.863,715.363C-817.509,702.909 -828.119,680.86 -829.203,662.574C-829.464,640.95 -823.942,623.156 -809,607L-807.692,605.568C-787.367,583.532 -760.574,573.02 -731,571C-713.786,570.338 -696.947,570.76 -680,574L-677.498,574.454C-668.114,576.171 -659.193,578.328 -650.273,581.754C-647.744,582.717 -645.227,583.597 -642.656,584.438C-618.558,592.397 -595.409,603.73 -572.597,614.752C-569.917,616.04 -567.229,617.309 -564.539,618.574C-545.128,627.728 -525.907,637.397 -507.313,648.125C-504.252,649.857 -501.16,651.459 -498,653L-497.207,651.25C-495.924,648.859 -494.479,647.034 -492.688,645L-490.949,643C-489,641 -489,641 -486.602,639.172C-483.425,636.52 -481.157,633.547 -478.688,630.25C-475.569,626.17 -472.481,622.299 -468.75,618.75C-465.185,615.352 -462.578,611.637 -459.84,607.559C-457.93,604.903 -455.858,602.576 -453.625,600.188C-449.31,595.513 -445.734,590.493 -442.191,585.234C-440.144,582.213 -438.033,579.256 -435.875,576.313C-429.02,567.13 -429.02,567.13 -422.938,557.438C-421.066,554.117 -419.031,551.006 -416.902,547.848C-414.403,544.106 -411.949,540.337 -409.5,536.563L-408.135,534.467C-405.188,529.92 -402.359,525.313 -399.585,520.658C-397.919,517.864 -396.238,515.078 -394.555,512.293C-383.231,493.522 -372.334,474.567 -361.883,455.297C-359.206,450.366 -356.485,445.461 -353.75,440.563C-346.772,428.022 -340.177,415.423 -334.082,402.426C-329.733,393.156 -325.018,384.09 -320.232,375.041C-317.073,369.061 -313.96,363.058 -310.86,357.046C-305.631,346.912 -300.316,336.844 -294.771,326.879C-291.973,321.831 -289.307,316.737 -286.75,311.563C-281.663,301.285 -276.378,291.399 -269.898,281.928C-266.687,277.177 -263.857,272.29 -261.125,267.25C-256.24,258.243 -250.805,249.642 -245.279,241.018C-243.656,238.458 -242.101,235.861 -240.563,233.25C-238.927,230.479 -237.214,227.845 -235.313,225.25C-233.164,222.231 -231.642,219.309 -230,216C-225.066,207.382 -219.495,199.141 -214,190.875L-211.988,187.842C-208.066,181.972 -204.029,176.208 -199.847,170.52C-197.915,167.884 -196.018,165.226 -194.125,162.563C-190.486,157.551 -186.563,152.829 -182.57,148.098C-179.09,143.941 -175.812,139.634 -172.535,135.316C-170.781,133.007 -168.995,130.729 -167.184,128.465L-165.791,126.707C-164.913,125.599 -164.028,124.497 -163.135,123.401C-160.709,120.319 -159.411,117.92 -159,114C-171.969,101.915 -189.093,95.766 -205.258,89.129C-207.029,88.4 -208.795,87.658 -210.555,86.902C-250.644,69.763 -291.65,60.151 -335,56L-338.121,55.701C-348.99,54.792 -359.851,54.844 -370.75,54.875L-373.766,54.881C-396.065,54.93 -417.998,55.041 -440,59L-444.192,59.728C-470.235,64.246 -495.413,69.904 -520.545,78.195C-522.812,78.938 -525.084,79.662 -527.359,80.379C-533.69,82.393 -539.628,84.642 -545.5,87.762C-548.317,89.157 -551.173,90.231 -554.125,91.313C-561.322,94.018 -568.084,97.376 -574.9,100.913C-577.017,102.009 -579.143,103.087 -581.27,104.164C-590.994,109.141 -600.054,114.742 -609,121L-612.484,123.398C-618.934,127.881 -625.145,132.62 -631.25,137.563L-633.144,139.095C-642.418,146.697 -651.084,154.903 -659.563,163.375L-662.232,166.008C-671.001,174.757 -678.629,184.266 -685.938,194.25L-687.749,196.722C-703.956,218.973 -716.563,241.317 -724,268L-724.852,270.98C-731.464,298.398 -726.604,324.003 -712.328,347.785C-696.915,371.58 -672.247,382.16 -645.766,388.813C-636.339,390.73 -626.571,390.17 -617,390L-617,393C-605.278,391.739 -594.221,388.497 -583,385L-580.325,384.167C-563.146,378.716 -549.228,371.374 -536,359L-534.31,357.425C-529.656,352.942 -525.836,348.046 -522.063,342.813L-520.204,340.247C-518.996,338.574 -517.792,336.898 -516.592,335.219C-515.312,333.435 -514.011,331.666 -512.703,329.902C-499.936,311.992 -493.816,292.438 -490,271C-485.703,271.859 -484.464,273.304 -482,277C-476.312,286.701 -477.271,295.829 -479.965,306.43C-487.155,331.23 -498.12,351.245 -516,370L-517.652,371.844C-527.019,381.92 -539.956,388.635 -552,395L-554.658,396.439C-562.367,400.481 -570.17,403.209 -578.5,405.688L-582.223,406.83C-585.807,407.919 -589.398,408.971 -593,410L-596.224,410.923C-602.596,412.641 -608.468,413.487 -615.063,413.375L-617.801,413.342C-643.435,412.748 -669.764,405.565 -693,395L-696.539,393.406C-723.055,380.786 -742.675,356.51 -754.123,329.949C-755.033,327.926 -756.035,325.971 -757.059,324.004C-759.026,320.109 -760.375,316.192 -761.563,312L-762.198,309.795C-764.302,302.282 -765.772,294.7 -767,287L-767.402,284.527C-770.1,264.755 -766.942,244.834 -761,226L-759.621,221.434C-756.406,211.058 -752.203,201.526 -747,192L-745.285,188.828C-738.525,176.802 -730.433,166.045 -721,156C-720.089,154.99 -719.18,153.979 -718.273,152.965C-713.772,147.948 -709.251,143.099 -704.074,138.762C-701.581,136.644 -699.207,134.416 -696.813,132.188C-679.492,116.472 -659.448,103.279 -639,92L-636.501,90.608C-610.59,76.277 -583.068,66.16 -555,57L-552.475,56.17C-547.688,54.616 -542.871,53.26 -538,52L-534.677,51.139C-507.503,44.182 -479.98,38.303 -452.202,34.325C-450.554,34.082 -448.908,33.824 -447.263,33.56C-422.16,29.545 -397.126,28.446 -371.754,28.553C-369.394,28.563 -367.034,28.567 -364.673,28.572C-330.017,28.655 -296.872,31.584 -263,39L-259.689,39.709C-242.261,43.448 -242.261,43.448 -233.966,46.327C-231.011,47.338 -228.006,48.156 -225,49C-218.743,50.788 -212.553,52.773 -206.375,54.813L-204.3,55.491C-191.242,59.836 -178.47,64.949 -165.761,70.214C-163.54,71.134 -161.318,72.05 -159.096,72.965C-153.28,75.363 -147.465,77.768 -141.688,80.258L-139.734,81.098C-136.761,82.644 -134.454,84.735 -132,87C-127.941,85.382 -125.195,82.497 -122.188,79.438L-120.56,77.803C-117.642,74.827 -115.005,71.825 -112.563,68.438C-109.288,64.016 -105.276,60.689 -101.046,57.233C-97.238,54.106 -93.754,50.842 -90.313,47.313C-78.092,34.881 -63.097,24.644 -48,16L-45.691,14.666C-31.389,6.5 -16.808,-0.551 0,0ZM-116,145C-118.566,149.901 -121.185,154.759 -123.078,159.965C-124.553,164.42 -125.904,168.216 -128.813,171.938C-132.5,176.494 -132.5,176.494 -139,188C-145.747,199.943 -152.435,212.066 -160.281,223.332C-167.576,233.627 -173.976,244.39 -180.333,255.285L-182.843,259.596L-184.063,261.688C-187.455,267.515 -191.039,273.183 -194.75,278.813C-197.933,283.633 -200.819,288.398 -203.313,293.625C-204.893,296.958 -206.366,299.672 -208.875,302.375C-212.095,305.83 -212.095,305.83 -216.896,314.46C-219.187,318.581 -221.573,322.619 -224.063,326.625C-226.655,330.796 -229.174,334.995 -231.625,339.25C-233.127,341.888 -234.654,344.483 -236.344,347.005C-239.55,351.728 -242.499,356.513 -245.285,361.494C-249.288,368.683 -253.351,375.77 -258,382.563C-261.983,388.369 -265.656,394.32 -269.25,400.375C-272.108,405.227 -274.985,410.036 -278.121,414.715C-279.798,417.2 -281.43,419.687 -283.02,422.23C-287.488,429.599 -292.09,436.871 -296.773,444.105L-299.293,448C-301.117,450.821 -302.94,453.642 -304.766,456.461C-306.656,459.379 -308.547,462.297 -310.432,465.219L-311.863,467.438L-314.688,471.813C-326.483,489.816 -326.483,489.816 -338.523,507.656L-342.375,513.375C-349.402,523.83 -356.402,534.297 -363.767,544.518C-365.424,546.812 -367.075,549.107 -368.7,551.423C-375.276,560.913 -382.068,570.117 -389.392,579.045L-391,581C-393.994,584.65 -396.989,588.299 -399.995,591.939C-402.494,594.961 -404.989,597.986 -407.465,601.027C-412.547,607.286 -417.75,613.432 -423.008,619.543L-426,623C-430.363,628.111 -434.875,633.003 -439.623,637.76L-441.938,640.063C-447.448,645.601 -453.046,650.941 -459,656L-461.934,658.477L-464.438,660.625C-467.966,663.609 -469.55,665.332 -470,670C-465.891,673.039 -461.805,675.806 -457.307,678.233L-455.25,679.313C-447.616,683.329 -439.82,686.804 -431.828,690.043C-429.462,690.995 -427.103,691.956 -424.76,692.963C-401.913,702.9 -377.194,709.893 -352.727,714.494L-350,715C-318.229,721.136 -286.463,722.27 -254.207,722.252L-251.938,722.25C-247.535,722.248 -243.133,722.244 -238.731,722.224L-234.59,722.203C-196.621,722.073 -159.631,715.374 -124.13,701.824L-122,701C-74.712,682.776 -33.886,656.937 -3.295,615.749L-2,614C5.989,603.474 11.313,592.269 16.457,580.113L19,574C21.786,567.529 24.405,561.157 26.329,554.373C26.768,552.821 27.227,551.275 27.71,549.736C33.718,530.936 37.753,511.117 38.75,491.375C38.816,489.249 38.895,487.124 39,485C39.6,482.78 40.009,480.838 40.134,478.532L40.145,475.735L40.165,472.546L40.168,469.105L40.186,461.83C40.185,458.023 40.187,454.217 40.206,450.41C40.273,437.151 40.46,424.075 38,411L36,411C36.223,404.833 35.573,398.958 34.731,392.849L34.188,389.063C33.638,385.188 33.082,381.315 32.513,377.443L32,374C30.224,362.04 27.429,350.588 24,339L22,339C21.572,335.576 20.866,332.63 19.688,329.375C18.743,326.976 17.863,324.586 17.055,322.137C15.56,317.506 14.061,312.941 12.063,308.5C10.917,306.02 9.805,303.54 8.742,301.023L7.438,297.875C6.624,295.917 5.811,293.959 5,292C-1.175,276.964 -9.329,262.851 -17.779,249L-19,247C-23.577,239.451 -28.158,231.961 -33.438,224.875C-34.96,222.918 -36.48,220.959 -38,219C-45.304,209.254 -53.124,200.506 -61.835,191.993C-64.4,189.49 -66.955,186.977 -69.507,184.461L-71.359,182.633C-75.101,178.947 -78.764,175.252 -82.203,171.277C-84.075,169.024 -85.729,167.377 -88,165.438C-90.843,163.231 -90.843,163.231 -92.543,161.387C-97.95,155.595 -104.296,151.419 -111.332,147.801L-113,147L-113,145L-116,145ZM-598.299,632.049C-642.201,611.199 -710.989,574.614 -752.777,616.535L-755,619C-757.892,622.203 -760.558,625.44 -763,629C-770.996,642.361 -772.74,654.846 -769.4,670.012L-768.75,672.813C-766.7,681.674 -763.631,688.996 -758.387,696.436L-757.125,698.188C-749.501,709.191 -738.279,716.459 -725.695,720.867L-722,722C-707.031,726.595 -707.031,726.595 -675.617,726.268L-673.367,726.238C-670.9,726.212 -668.465,726.136 -666,726C-662.123,724.66 -662.123,724.66 -657.983,724.354C-644.485,723.11 -631.033,721.314 -617.918,717.805L-615,717C-607.974,715.201 -601.268,713.273 -594.688,710.188C-591.117,708.452 -587.557,706.793 -583.863,705.34C-577.089,702.683 -570.683,700.02 -564.5,696.125C-560.282,693.398 -556.036,690.882 -551.599,688.537L-549.375,687.375L-545.039,685.105C-538.378,681.634 -530.186,678.543 -525,673C-524.25,670.563 -524.25,670.563 -525,668C-530.443,663.439 -530.443,663.439 -543.694,657.467C-546.227,656.325 -548.753,655.168 -551.279,654.011L-553.152,653.152C-556.897,651.438 -560.633,649.722 -564.316,647.879C-570.415,644.761 -576.545,641.821 -582.813,639.063C-588.004,636.783 -593.174,634.474 -598.299,632.049Z" style="fill:rgb(21,11,13);"/>
        </g>
        <g transform="matrix(1,0,0,1,2034.62,1569.38)">
            <path d="M0,0C4.597,4.434 9.018,8.965 10.563,15.313C9.777,19.067 7.696,20.615 4.934,23.172C3.106,24.9 1.53,26.682 -0.063,28.625C-2.008,30.964 -3.979,32.876 -6.375,34.75C-7.241,35.493 -8.108,36.235 -9,37L-9,40C-3.642,42.496 1.553,43.976 7.313,45.25C19.969,48.159 32.486,51.538 45,55C45.847,55.232 46.694,55.464 47.566,55.704C69.384,61.718 90.002,70.873 109.176,82.875C111.048,84.03 112.939,85.144 114.84,86.25C122.989,91.001 130.589,96.137 138,102C139.352,103.044 139.352,103.044 140.73,104.109C152.802,113.655 163.068,124.501 172,137C172.669,137.926 172.669,137.926 173.351,138.871C183.353,152.79 191.609,167.525 199.016,182.967C199.665,184.307 200.324,185.642 200.996,186.971C206.369,197.617 209.653,208.506 212.559,220.033C214.935,229.453 217.742,238.296 221.75,247.141C223,250 223,250 223,252C221.966,252.273 221.966,252.273 220.91,252.551C219.97,252.802 219.031,253.054 218.063,253.313C217.146,253.556 216.229,253.8 215.285,254.051C212.806,254.767 210.4,255.544 207.965,256.387C201.899,258.429 195.708,259.955 189.5,261.5C188.266,261.809 187.031,262.118 185.76,262.436C177.619,264.441 169.51,266.138 161.223,267.395C158.081,267.872 158.081,267.872 155.605,268.984C153.045,269.982 150.81,270.471 148.098,270.859C147.139,271.003 146.181,271.146 145.194,271.293C144.16,271.444 143.127,271.595 142.063,271.75C129.508,273.663 117.098,276.092 104.66,278.633C103.512,278.867 102.364,279.102 101.182,279.343C99.246,279.743 97.312,280.149 95.381,280.569C88.427,282.05 81.443,282.833 74.375,283.563C73.219,283.688 72.062,283.814 70.871,283.943C56.518,285.458 42.145,286.164 27.723,286.551C26.966,286.572 26.209,286.592 25.429,286.614C6.971,287.11 -11.487,287.187 -29.951,287.185C-33.68,287.185 -37.408,287.192 -41.136,287.206C-75.939,287.331 -110.771,286.551 -145.438,283.25C-146.319,283.169 -147.2,283.088 -148.108,283.004C-169.26,281.038 -190.13,277.628 -210.941,273.398C-215.621,272.451 -220.277,271.614 -225.007,270.975C-235.529,269.547 -245.515,266.825 -255.651,263.717C-257.776,263.068 -259.905,262.443 -262.039,261.828C-271.753,258.978 -271.753,258.978 -276,256L-276,254L-278,254C-278.198,243.464 -278.339,233.334 -276,223C-275.778,221.876 -275.557,220.752 -275.328,219.594C-269.975,195.153 -258.435,171.036 -245,150C-244.606,149.379 -244.211,148.758 -243.805,148.118C-232.585,130.56 -220.334,115.987 -203.734,103.329C-202.166,102.127 -200.613,100.907 -199.063,99.684C-186.299,89.774 -172.078,81.873 -158,74C-156.588,73.201 -156.588,73.201 -155.148,72.387C-130.069,58.401 -103.11,51.922 -75.083,46.598C-71.01,45.823 -66.991,45.056 -63.016,43.871C-59.869,42.962 -57.258,42.841 -54,43C-54.474,41.907 -54.949,40.814 -55.438,39.688C-56.402,37.465 -57.232,35.305 -58,33C-58.722,32.711 -59.444,32.423 -60.188,32.125C-66.034,29.786 -70.123,25.532 -73,20C-73.912,13.098 -71.994,6.62 -67.813,1.125C-53.26,-9.871 -14.888,-10.885 0,0Z" style="fill:rgb(128,1,8);fill-rule:nonzero;"/>
        </g>
        <g transform="matrix(1,0,0,1,2527.18,1754.37)">
            <path d="M0,0L3.302,0.026C16.1,0.256 28.261,0.708 38.313,9.438C39.938,11.375 39.938,11.375 39.938,14.375C38.69,15.026 37.439,15.671 36.188,16.313L34.078,17.402C29.846,19.325 26.076,19.506 21.441,19.551L17.557,19.623C14.887,19.669 12.219,19.697 9.549,19.717C-3.152,19.989 -14.868,22.012 -24.063,31.375C-32.379,40.929 -35.857,53.532 -36.023,65.988C-36.053,67.793 -36.105,69.598 -36.168,71.402C-36.716,87.247 -35.946,101.265 -31.063,116.375L-30.051,119.809C-28.12,126.074 -25.511,131.909 -22.699,137.824C-20.536,142.516 -18.608,147.291 -16.671,152.079C-14.913,156.396 -13.028,160.613 -11,164.813C-7.595,172.05 -5.19,179.572 -2.768,187.18C-2.034,189.465 -1.275,191.74 -0.512,194.016C10.223,226.154 10.529,251.725 -4.165,282.482C-4.916,284.065 -5.63,285.666 -6.336,287.27C-12.572,300.957 -23.291,310.749 -34.21,320.683C-41.324,327.183 -48.345,333.862 -53.063,342.375L-53.063,345.375C-46.322,346.654 -41.059,345.876 -34.438,344.25L-31.496,343.546C-12.576,338.897 1.529,331.278 15.447,317.769C16.95,316.363 18.503,315.055 20.098,313.754C22.468,311.768 24.448,309.85 26.438,307.5C29.935,303.378 29.935,303.378 31.363,301.832C36.569,296.128 40.595,289.542 44.804,283.095C46.187,280.996 47.627,278.938 49.063,276.875C56.739,265.338 62.353,252.47 67.945,239.844L69.008,237.447C69.69,235.905 70.37,234.361 71.047,232.817C72.624,229.238 74.253,225.709 76.027,222.223C77.697,218.925 79.09,215.594 80.375,212.125C83.53,203.773 86.753,195.472 90.859,187.535C92.199,184.851 93.402,182.114 94.625,179.375C104.345,158.34 117.86,139.682 131.938,121.375L133.973,118.688C147.398,101.357 163.356,86.363 180.938,73.375L182.791,71.936C187.502,68.302 192.334,65.269 197.563,62.438L199.945,61.138C202.272,59.875 204.604,58.625 206.938,57.375L208.839,56.337C222.589,48.855 237.228,44.751 252.25,40.625L255.464,39.734C276.182,34.184 298.283,31.498 317.938,41.375L320.441,42.578C331.876,48.089 342.336,54.028 351.938,62.375L354.102,64.168C359.415,68.928 363.28,75.493 364.242,82.637C364.25,84.563 364.25,84.563 363.938,87.375C352.749,88.185 347.855,84.248 339.542,77.226C330.045,69.213 320.08,63.712 308.938,58.375L306.938,57.375C293.112,56.448 283.065,60.3 270.938,66.375L268.02,67.816C256.451,73.814 246.379,81.652 236.953,90.578C233.795,93.552 230.469,96.301 227.125,99.063C222.906,102.573 219.104,106.176 215.609,110.414C213.664,112.696 211.575,114.773 209.438,116.875C206.044,120.228 202.844,123.67 199.742,127.293C197.729,129.615 195.646,131.865 193.563,134.125C189.091,139.087 185.089,144.314 181.157,149.709C179.864,151.475 178.554,153.229 177.242,154.98C171.091,163.226 165.407,171.667 159.938,180.375L158.035,183.309C154.609,188.595 151.488,193.956 148.527,199.516C146.817,202.591 144.955,205.534 143.063,208.5C139.61,214.045 136.793,219.709 134.083,225.646C131.514,231.246 128.715,236.691 125.813,242.125C112.37,267.436 103.662,292.691 111.785,321.367C113.577,326.836 115.281,330.741 119.938,334.375L122.125,336.188C128.045,338.687 133.961,338.001 139.875,335.75C141.575,334.985 143.262,334.192 144.938,333.375L147.555,332.16C155.104,328.385 161.174,323.302 167.427,317.723C168.772,316.523 170.131,315.338 171.492,314.156C181.645,305.235 191.368,295.737 199.75,285.121C201.698,282.676 203.712,280.307 205.763,277.949C216.917,265.06 226.804,251.519 234.754,236.426C236.622,232.88 238.702,229.51 240.85,226.128C242.069,224.163 243.093,222.161 244.063,220.063C247.015,213.988 250.474,208.213 253.928,202.415C256.631,197.827 258.963,193.23 261.064,188.338C262.11,185.988 263.362,183.851 264.75,181.688C267.563,177.125 269.964,172.422 272.336,167.618C277.551,157.069 283.472,147.19 289.938,137.375L291.934,134.273C295.172,129.589 299.063,125.535 302.938,121.375L304.457,119.727C309.151,114.809 313.338,113.009 320.063,112.188L323.758,111.707C332.953,110.841 341.927,111.518 351.063,112.688L354.152,113.045C360.388,113.825 366.069,115.117 371.938,117.375L371.938,119.375C370.582,120.65 370.582,120.65 368.75,122.086C365.17,125.068 362.535,128.15 359.938,132L358.563,134.016C351.807,144.244 346.342,155.286 340.653,166.129C338.412,170.37 336.097,174.566 333.75,178.75L331.406,182.949L330.215,185.083C323.017,197.996 315.94,210.857 309.938,224.375L308.84,226.762C300.323,245.416 293.475,264.695 289.664,284.859C288.938,288.375 288.938,288.375 287.938,289.375C286.739,297.369 286.684,305.366 286.625,313.438L286.581,315.448C286.405,323.489 286.385,329.583 290.938,336.375C293.976,339.017 295.784,340.274 299.805,340.625C310.334,339.785 320.97,329.976 327.625,322.313L329.297,320.297C330.897,318.422 332.585,316.755 334.375,315.063C338.865,310.643 342.32,305.51 345.938,300.375C347.289,298.519 348.643,296.665 350,294.813C353.708,289.708 357.348,284.563 360.938,279.375L362.365,277.327C369.162,267.563 375.779,257.765 381.73,247.461C383.101,245.092 384.489,242.734 385.875,240.375C391.778,230.26 397.142,220.07 401.993,209.415C404.531,203.934 407.275,198.552 410.023,193.175C410.884,191.48 411.724,189.776 412.563,188.07C417.296,178.776 417.296,178.776 422.938,176.375C425.915,176.444 427.355,176.987 429.813,178.625C430.938,180.375 430.938,180.375 430.604,182.702C427.413,195.506 421.687,207.668 414.918,218.93C412.939,222.373 411.445,225.708 409.938,229.375C406.8,236.227 403.03,242.581 399.035,248.965C396.95,252.32 395.001,255.745 393.063,259.188C389.71,265.132 386.148,270.927 382.504,276.697C380.291,280.201 378.135,283.722 376.063,287.313C371.503,294.976 366.166,302.16 360.938,309.375L359.027,312.012C354.229,318.389 348.749,324.172 343.268,329.961C342.21,331.086 341.17,332.227 340.137,333.375C331.882,342.248 320.991,349.546 309.938,354.375L307.023,355.742C294.914,361.398 281.022,362.555 268.188,358.063C254.419,350.516 244.407,334.631 238.938,320.375L237.907,318.185C236.741,314.807 236.679,312.029 236.672,308.457L236.666,306.465C236.665,305.078 236.668,303.69 236.677,302.302C236.687,300.211 236.677,298.121 236.664,296.029C236.658,289.369 236.971,283.117 238.492,276.621C239.243,272.837 239.151,269.092 239.063,265.25L239.035,262.93C239.012,261.078 238.976,259.226 238.938,257.375C235.904,258.017 235.904,258.017 235,260L233.938,262.375C231.409,267.017 228.719,271.15 225.438,275.313C224.547,276.45 223.658,277.588 222.77,278.727L221.366,280.524C219.414,283.054 217.513,285.619 215.61,288.185C209.908,295.872 203.988,303.347 197.91,310.738C195.425,313.762 193.019,316.841 190.625,319.938C187.694,323.61 184.582,326.691 180.965,329.684C179.628,330.799 178.326,331.958 177.066,333.16C172.038,337.934 166.556,341.833 160.813,345.688L158.497,347.251C154.113,350.143 149.84,352.432 144.938,354.375L141.492,355.98C128.921,361.548 114.345,363.237 101.188,358.438C95.348,355.489 91.144,351.316 86.938,346.375L85.109,344.32C75.314,332.628 68.862,318.609 67.875,303.438C67.397,296.552 66.596,290.084 64.938,283.375C61.415,284.306 60.189,284.948 58.305,288.141L56.813,291.625C51.228,303.793 42.042,313.695 32.938,323.375L31.211,325.262C21.572,335.427 9.632,342.008 -3.219,347.184C-5.609,348.185 -7.848,349.273 -10.125,350.5C-18.319,354.684 -27.309,355.886 -36.375,356.563L-39.193,356.811C-45.606,357.332 -51.962,357.416 -58.393,357.377C-64.725,357.374 -71.048,357.596 -77.375,357.813L-81.35,357.932L-85.113,358.059L-88.509,358.17C-90.996,358.092 -90.996,358.092 -92.063,359.375C-94.733,359.516 -97.387,359.417 -100.063,359.375L-100.063,362.375C-117.603,366.368 -134.138,365.064 -151.063,359.375L-153.039,358.743C-163.548,355.288 -170.646,349.286 -178.063,341.375L-180.219,339.09C-190.586,326.926 -195.432,308.132 -196.063,292.375L-196.219,289.781C-196.558,279.931 -195.08,270.333 -189.063,262.375L-188.25,259.5C-186.773,255.612 -184.528,253.225 -181.719,250.207C-179.888,248.272 -179.888,248.272 -178.063,245.375C-176.41,244.615 -174.753,243.863 -173.066,243.184C-164.848,239.871 -164.848,239.871 -159.063,233.375C-158.1,231.036 -157.212,228.673 -156.316,226.309C-153.337,219.338 -149.153,212.874 -145.27,206.375C-140.827,198.893 -136.905,191.232 -133.074,183.426C-132.091,181.434 -131.096,179.448 -130.094,177.465C-126.424,170.195 -122.882,162.88 -119.438,155.5C-117.159,150.624 -114.891,145.864 -112,141.313C-108.808,136.256 -106.538,130.862 -104.164,125.39C-101.947,120.3 -99.589,115.318 -97.063,110.375C-93.834,104.045 -90.915,97.616 -88.071,91.106C-85.491,85.238 -82.692,79.506 -79.786,73.794C-78.062,70.401 -76.423,67.004 -74.938,63.5C-71.653,55.955 -67.178,49.262 -62.047,42.859C-60.114,40.44 -58.234,37.985 -56.362,35.519C-48.107,24.676 -39.775,15.628 -28.688,7.625L-25.602,5.391C-17.657,0.453 -9.138,-0.122 0,0ZM-64.063,74.375C-65.726,76.424 -67.035,78.315 -68.133,80.723C-73.449,94.408 -80.015,107.533 -86.875,120.5C-89.427,125.269 -91.951,130.014 -94.137,134.965C-95.708,138.58 -97.359,142.145 -99.055,145.703C-101.21,150.215 -103.39,154.704 -105.258,159.344C-106.819,163.489 -108.479,167.225 -110.813,171C-113.135,174.728 -115.214,178.518 -117.19,182.437L-118.25,184.563C-121.042,190.142 -124.052,195.791 -125.75,201.813L-126.063,203.375L-128.063,203.375C-128.98,206.364 -128.98,206.364 -130.367,208.977C-132.775,213.612 -135.121,218.131 -136.688,223.125C-137.362,225.366 -138.048,227.347 -139.129,229.426C-141.898,234.395 -142.47,237.671 -142.063,243.375L-138.375,244.125C-136.242,244.504 -136.242,244.504 -134.063,245.375C-130.72,247.491 -129.262,248.525 -128.343,252.444L-128.207,256.004C-128.107,257.969 -128.008,259.935 -127.941,261.902C-127.875,263.935 -127.794,265.966 -127.705,267.998L-127.52,271.879C-127.394,275.436 -127.394,275.436 -127.063,278.375C-125.04,281.071 -125.04,281.071 -124.532,283.285L-124.133,285.438L-123.669,287.835C-120.112,306.59 -112.914,322.804 -97.773,335.258C-93.52,338.316 -90.492,340.21 -85.063,339.375L-85.063,337.375L-83.063,337.375C-75.318,332.164 -70.134,324.403 -65.513,316.472L-64.313,314.375C-61.964,310.311 -59.96,306.345 -58.484,301.879C-57.798,299.689 -57.114,297.515 -56.317,295.363C-38.867,250.044 -38.867,250.044 -56.652,139.172C-59.187,123.69 -60.308,108.366 -60.675,92.688L-60.721,90.608L-60.816,86.684C-60.921,81.57 -61.817,78.867 -64.063,74.375ZM-147.063,274.375C-152.719,285.298 -156.285,295.48 -156.434,307.902L-156.438,310.875C-156.689,320.939 -154.734,328.543 -148.59,336.629C-142.144,343.998 -132.509,353.079 -122.438,354.25L-119.063,354.375C-118.063,355.375 -118.063,355.375 -114.902,355.473L-111,355.438C-108.687,355.421 -106.375,355.402 -104.063,355.375C-105.086,350.227 -106.278,346.484 -109.387,342.255L-110.688,340.563C-112.463,338.154 -114.247,335.754 -116.063,333.375C-120.561,327.597 -124.534,321.758 -128.033,315.325L-129.375,312.813C-133.146,305.828 -135.738,298.925 -137.581,291.203C-138.243,288.316 -139.019,285.51 -139.934,282.691L-140.938,279.938C-141.867,277.379 -141.867,277.379 -143.063,275.375C-145.195,274.59 -145.195,274.59 -147.063,274.375Z" style="fill:rgb(17,10,12);"/>
        </g>
        <g transform="matrix(1,0,0,1,1755.62,1797.38)">
            <path d="M135,92C131.859,91.666 98.232,84.157 94.789,83.719C89.526,83.387 84.511,82.752 79.358,81.658C71.836,80.043 64.393,78.739 56.741,77.902C46.812,76.841 37.262,75.375 27.584,72.896C23.492,71.844 19.435,70.857 15.27,70.141C5.49,68.459 -3.817,65.944 -13.197,62.728L-15.125,62.063C-23.318,59.251 -31.509,56.419 -39,52C-41.967,49.245 -42.93,48.096 -43.188,44.063L-43,41C-43.987,37.997 -43.987,37.997 -44,35C-41.266,32.136 -38.857,30.481 -35.438,28.563C-33,27.763 -33,27.763 -30.754,28.848C-28,30 -28,30 -24.906,30.93C-16.076,33.38 -7.265,35.901 1.426,38.813C9.735,41.646 18.056,43.874 26.688,45.5C29.837,46.068 32.908,46.586 35.907,47.722C40.307,49.517 44.27,50.463 49.004,50.926C52.676,51.234 56.337,51.591 60,52C62,53 62,53 65.203,53.395C70.698,53.962 76.097,54.474 81.434,55.949C88.536,58.243 95.007,59.459 102.438,60.063C107.343,60.449 112.219,60.764 117.047,61.75C131.295,64.93 131.295,64.93 171.916,65.503C174.062,65.533 176.209,65.563 178.355,65.595C196.634,65.87 214.91,66.033 233.191,66.029L235.965,66.027C244.965,66.023 253.965,66.014 262.965,65.982C266.364,65.969 269.764,65.959 273.164,65.95C275.519,65.945 277.873,65.938 280.228,65.925C281.683,65.917 283.137,65.91 284.591,65.907L286.6,65.902C288.734,65.893 290.868,65.913 293,66C295,67 295,67 297.326,67.102L300.278,67.069L303.632,67.038L307.293,66.984C310.546,66.942 313.798,66.899 317.051,66.846C320.423,66.791 323.795,66.744 327.167,66.708C344.663,66.528 363.546,67.138 380.457,61.937C383.017,60.994 385.443,60.471 388.125,60C390.685,59.553 392.749,59.124 395.082,57.969L397,57C399.334,56.672 514.413,29.451 517.438,27.125C523.921,21.748 540.487,20.434 540.487,20.434C540.487,20.434 547.262,35.024 547.375,40.875L547.461,44.742C547,48 547,48 545.289,49.585C542.865,51.083 540.624,52.002 537.922,52.902L534.928,53.906L531.75,54.938L528.479,56.01C516.624,59.846 504.774,62.751 492.508,64.927C489.042,65.558 485.751,66.302 482.438,67.5C471.186,71.551 458.715,72.763 446.949,74.642L443.918,75.133L441.192,75.567C438.967,75.906 438.967,75.906 437,77C436.535,78.895 292.785,95.688 290.566,95.684C288.937,95.682 287.308,95.676 285.679,95.667C281.247,95.638 276.816,95.616 272.385,95.603C267.673,95.59 262.962,95.568 258.251,95.543C249.357,95.495 240.463,95.455 231.569,95.422C221.362,95.384 211.156,95.338 200.949,95.288C179.843,95.183 158.737,95.091 137.631,95.01L135,95L135,92Z" style="fill:rgb(249,185,66);"/>
        </g>
        <g transform="matrix(1,0,0,1,1507.66,1819)">
            <path d="M0,0C8.127,6.605 15.94,16.824 17.063,27.506C17.712,37.812 16.686,47.584 13.855,57.535L13.117,60.211C9.506,71.49 3.04,84.163 -5.343,92.624C-7.269,94.668 -8.951,96.813 -10.664,99.039C-15.458,105.068 -20.756,110.546 -26.207,115.973L-27.742,117.504C-42.601,132.267 -58.809,143.325 -78.145,151.535C-80.275,152.65 -82.4,153.776 -84.52,154.91C-92.397,158.985 -100.622,161.212 -109.145,163.535C-113.159,164.756 -117.086,166.104 -120.973,167.688C-134.289,173.083 -147.917,175.821 -162.145,177.535C-162.813,179.201 -163.479,180.868 -164.145,182.535L-165.074,184.805C-173.527,207.544 -179.989,246.903 -169.758,269.469L-168.145,272.535C-167.531,273.837 -166.92,275.141 -166.313,276.445C-161.484,286.469 -156.144,293.241 -145.774,297.713C-140.855,299.251 -135.941,299.069 -130.832,298.973L-127.646,298.994C-120.088,298.934 -113.381,297.649 -106.145,295.535L-103.502,294.837C-97.481,293.182 -92.18,290.768 -86.707,287.785L-84.203,286.44C-71.97,279.803 -60.019,272.607 -51.043,261.777C-49.183,259.58 -47.229,257.495 -45.247,255.409C-39.341,249.154 -34.308,242.539 -29.457,235.436C-28.492,234.038 -27.511,232.65 -26.522,231.269C-22.184,225.191 -18.316,218.936 -14.582,212.473C-11.521,207.191 -8.474,201.951 -5.016,196.918C-2.112,192.628 0.098,188.185 2.23,183.473C3,181.807 3.77,180.141 4.543,178.477L5.703,175.973C7.466,172.244 9.351,168.581 11.23,164.91C14.554,158.346 17.552,152.179 18.168,144.785C18.945,141.112 20.159,139.789 23.176,137.602C27.415,134.91 30.727,132.949 35.855,133.535C36.855,134.535 36.855,134.535 36.875,136.688C36.433,142.636 35.354,147.435 32.953,152.883C31.734,155.828 30.859,158.785 29.98,161.848C28.108,168.058 25.623,173.765 22.789,179.591C21.704,181.85 20.656,184.125 19.609,186.402L17.23,191.535L16.103,194C14.077,198.328 11.961,201.865 8.855,205.535C7.938,207.094 7.064,208.68 6.23,210.285C0.09,221.774 -6.426,233.029 -14.145,243.535L-15.895,246.02C-28.9,264.335 -43.006,281.95 -62.02,294.223L-64.547,295.904C-69.424,299.074 -74.2,301.545 -79.644,303.585C-82.194,304.554 -84.667,305.631 -87.152,306.754C-110.082,317.018 -139.455,324.823 -164.145,315.535C-165.818,314.546 -167.484,313.545 -169.145,312.535C-170.833,311.827 -172.522,311.12 -174.212,310.415C-194.693,301.088 -209.858,286.573 -218.145,265.535C-231.767,226.952 -222.156,180.312 -205.265,143.993C-203.964,141.139 -202.878,138.241 -201.832,135.285C-199.906,130.184 -197.648,125.398 -195.082,120.598L-194.087,118.735C-192.5,115.83 -190.822,113.052 -188.984,110.297C-187.295,107.76 -186.187,105.298 -185.031,102.492C-177.414,85.681 -163.915,69.803 -150.688,57.078C-149.062,55.452 -147.615,53.74 -146.145,51.973C-137.075,41.497 -126.395,32.554 -115.145,24.535L-112.027,22.152C-84.454,1.25 -33.007,-22.546 0,0ZM-15.832,14.535C-26.026,10.045 -34.52,12.726 -43.23,18.897L-44.957,20.16C-49.333,23.323 -53.504,26.604 -57.52,30.223C-59.704,32.262 -61.867,34.3 -64.148,36.23C-67.84,39.318 -71.235,42.594 -74.522,46.104L-76.02,47.723C-78.434,50.313 -80.727,52.788 -82.465,55.898L-83.145,57.535L-85.145,57.535C-86.561,59.09 -87.965,60.659 -89.309,62.277C-90.635,63.909 -91.964,65.539 -93.293,67.168L-95.582,69.973C-97.687,72.559 -99.789,75.133 -101.996,77.633C-105.97,82.051 -109.523,86.652 -112.977,91.488C-114.094,93.058 -115.212,94.627 -116.345,96.186C-120.847,102.347 -125.221,108.522 -129.207,115.035C-131.576,118.96 -133.968,122.862 -136.449,126.717L-137.582,128.473C-139.5,131.465 -141.417,134.455 -143.403,137.402L-144.68,139.285L-147.145,142.973C-150.231,147.409 -151.702,151.064 -152.145,156.535C-150.645,158.035 -150.645,158.035 -148.145,159.535C-142.62,159.928 -137.923,159.218 -132.583,157.808L-129.832,157.035C-120.709,154.512 -112.052,151.304 -103.406,147.465C-101.987,146.82 -100.566,146.176 -99.145,145.535C-71.217,133.697 -47.13,115.76 -28.582,91.785C-15.465,73.855 -2.65,48.522 -6.145,25.535C-7.917,20.172 -10.973,17.282 -15.832,14.535Z" style="fill:rgb(19,12,14);"/>
        </g>
        <g transform="matrix(1,0,0,1,1601,1637.56)">
            <path d="M0,0C12.789,6.685 20.166,20.516 24.895,33.605C29.292,53.302 26.971,73.53 17.75,91.438C17.332,92.376 16.915,93.314 16.484,94.281C12.975,101.918 8.545,107.418 2.75,113.438C1.598,114.807 0.451,116.182 -0.688,117.563C-11.153,129.486 -25.334,137.404 -39.759,143.477C-45.457,145.932 -50.114,148.806 -54.988,152.676C-59.621,156.284 -62.53,157.835 -68.5,157.688C-69.557,157.672 -70.614,157.657 -71.703,157.641C-74.25,157.438 -74.25,157.438 -75.25,156.438C-75.75,154.25 -75.75,154.25 -75.25,151.438C-70.769,146.206 -65.198,143.875 -58.813,141.75C-57.189,141.184 -55.565,140.617 -53.941,140.051C-51.65,139.261 -49.358,138.474 -47.06,137.705C-35.716,133.739 -27.934,124.294 -20.25,115.438C-19.612,114.736 -18.974,114.035 -18.316,113.313C-6.254,99.987 -2.666,90.061 -3.25,72.438C-6.709,72.743 -10.167,73.058 -13.625,73.375C-14.61,73.462 -15.595,73.549 -16.609,73.639C-17.55,73.726 -18.491,73.813 -19.461,73.902C-20.765,74.02 -20.765,74.02 -22.095,74.14C-24.295,74.326 -24.295,74.326 -26.25,75.438C-36.407,75.738 -44.152,70.315 -51.297,63.582C-57.328,56.96 -57.959,49.997 -57.695,41.227C-56.218,28.657 -49.379,20.547 -39.813,12.938C-32.776,7.801 -25.12,4.119 -17.25,0.438C-12.38,-1.997 -5.227,-0.905 0,0Z" style="fill:rgb(22,19,14);fill-rule:nonzero;"/>
        </g>
        <g transform="matrix(0.94189,0,0,0.856732,241.52,797.139)">
            <ellipse cx="1866.44" cy="1216.13" rx="358.493" ry="377.484" style="fill:none;stroke:rgb(249,185,66);stroke-width:35.54px;"/>
        </g>
        <g transform="matrix(1,0,0,1,2190.62,1876.38)">
            <path d="M0,0C5.35,24.808 5.35,24.808 1,35C-1.933,38.697 -5.422,40.45 -9.625,42.5C-10.246,42.806 -10.867,43.111 -11.507,43.426C-15.031,45.136 -18.576,46.647 -22.25,48C-34.609,52.761 -44.081,62.99 -53.207,72.228C-56.77,75.821 -60.447,79.188 -64.309,82.461C-66.597,84.543 -68.488,86.879 -70.453,89.262C-72.695,91.781 -75.24,93.88 -77.809,96.059C-80.259,98.23 -82.527,100.531 -84.813,102.875C-89.044,107.158 -93.504,110.954 -98.203,114.711C-102.09,117.892 -105.77,121.279 -109.461,124.684C-111.539,126.579 -113.651,128.39 -115.813,130.188C-127.146,140.055 -136.817,152.05 -146.191,163.73C-160.528,181.503 -176.738,195.911 -195.027,209.488C-205.342,217.149 -215.343,225.025 -224.285,234.289C-225.907,235.907 -227.58,237.33 -229.375,238.75C-232.781,241.669 -233.693,243.352 -234.5,247.688C-233.863,251.909 -231.952,254.063 -229.215,257.266C-225.739,265.089 -230.283,274.714 -232.938,282.25C-233.298,283.299 -233.658,284.349 -234.029,285.43C-234.716,287.427 -235.406,289.422 -236.101,291.416C-237.094,294.269 -238.055,297.131 -239,300C-246.897,299.483 -254.332,297.902 -262,296C-263.169,295.723 -264.338,295.446 -265.543,295.16C-273.945,293.132 -282.258,290.835 -290.563,288.438C-291.586,288.145 -292.609,287.852 -293.663,287.55C-298.971,286 -303.95,284.239 -309,282C-311.755,280.996 -314.535,280.066 -317.313,279.125C-322.978,277.17 -328.29,275.006 -333.594,272.195C-336.261,270.87 -338.956,269.842 -341.75,268.813C-348.093,266.433 -354.263,263.725 -360.438,260.938C-361.859,260.302 -361.859,260.302 -363.31,259.654C-370.754,256.265 -376.795,252.318 -383,247C-382.875,244.75 -382.875,244.75 -382,242C-379.25,240 -379.25,240 -376,238C-369.659,232.141 -362.917,224.085 -360.5,215.625C-358.312,210.337 -354.908,207.799 -350,205C-343.384,202.3 -336.825,201.659 -329.727,201.602C-325.654,200.703 -324.41,199.423 -322,196C-320.978,192.059 -320.61,188.111 -320.25,184.063C-320.131,182.929 -320.011,181.795 -319.888,180.627C-319.32,175.088 -318.89,169.562 -318.625,164C-318.187,156.186 -316.409,148.592 -314.727,140.967C-313.035,133.092 -312.484,125.937 -313.5,117.938C-313.665,116.638 -313.83,115.339 -314,114L-316,114C-319.176,102.984 -319.434,92.667 -319.36,81.296C-319.302,66.39 -321.951,52.218 -332.438,40.813C-333.199,39.973 -333.961,39.134 -334.746,38.27C-339.307,33.677 -344.303,31.327 -350.125,28.598C-353.074,26.959 -354.982,25.705 -357,23C-357.391,19.984 -357.391,19.984 -357.25,16.75C-357.214,15.672 -357.178,14.595 -357.141,13.484C-357.094,12.665 -357.048,11.845 -357,11C-340.886,9.425 -320.231,7.555 -306,17C-302.829,20.384 -300.439,24.069 -298,28C-296.739,29.82 -295.469,31.633 -294.188,33.438C-293.645,34.22 -293.102,35.002 -292.543,35.809C-291.532,37.245 -290.476,38.651 -289.375,40.02C-287.206,43.144 -286.8,46.305 -286,50L-284,50C-282.891,51.772 -281.864,53.596 -280.875,55.438C-278.01,60.496 -274.939,64.692 -270.961,68.914C-269.079,70.916 -267.362,72.997 -265.625,75.125C-258.457,83.198 -250.717,87.068 -240.188,88.938C-239.129,89.139 -238.07,89.341 -236.979,89.549C-229.584,90.889 -222.512,91.748 -215,91C-213.25,90.84 -213.25,90.84 -211.465,90.676C-195.888,88.86 -181.722,82.022 -171.317,70.067C-169.732,68.052 -168.201,66.007 -166.688,63.938C-165.559,62.432 -164.43,60.927 -163.301,59.422C-162.746,58.677 -162.191,57.933 -161.62,57.166C-131.529,16.924 -131.529,16.924 -111.063,13.313C-110.398,13.183 -109.733,13.053 -109.049,12.92C-104.306,12.05 -99.82,11.887 -95,12C-99.345,21.41 -107.528,29.693 -114.938,36.813C-122.444,44.232 -130.753,54.429 -133,65C-119.73,59.966 -109.183,50.626 -99,41C-93.295,35.695 -87.168,31.048 -80.898,26.438C-77.639,24.032 -74.512,21.594 -71.504,18.879C-64.776,13.078 -57.188,11.011 -48.688,8.938C-46.733,8.447 -44.778,7.956 -42.824,7.465C-41.86,7.226 -40.895,6.987 -39.902,6.741C-37.02,6.005 -34.165,5.201 -31.305,4.387C-26.692,3.117 -22.192,2.347 -17.438,1.875C-11.316,1.229 -6.2,-0.1 0,0Z" style="fill:rgb(119,3,7);fill-rule:nonzero;"/>
        </g>
    </g>
</svg>
